{"title":"No Doubt - MTV World Stage [HD 720p]","uid":10399718,"size":935140241,"categoryP":"video","categoryS":"hd___tv_shows","magnet":"?xt=urn:btih:2e878024f183921cd51cb24f93618604596d00e2&amp;dn=No+Doubt+-+MTV+World+Stage+%5BHD+720p%5D&amp;tr=udp%3A%2F%2Ftracker.openbittorrent.com%3A80&amp;tr=udp%3A%2F%2Fopen.demonii.com%3A1337&amp;tr=udp%3A%2F%2Ftracker.coppersurfer.tk%3A6969&amp;tr=udp%3A%2F%2Fexodus.desync.com%3A6969","seeders":0,"leechers":1,"uploader":"JiMCRi","files":-1,"time":1403334455,"description":"Posted by: JiMCRi\n\n\nNo Doubt - MTV World Stage 2012\nGenre: Rock\n\n\nFile size                      : 892 MiB\nDuration                       : 44mn 13s\n\n\nVideo\n\nFormat                         : AVC\nFormat/Info                    : Advanced Video Codec\nFormat profile                 : &lt;a class=&quot;__cf_email__&quot; href=&quot;/cdn-cgi/l/email-protection&quot; data-cfemail=&quot;e3ab8a848ba3afd0cdd2&quot;&gt;[email&amp;#160;protected]&lt;/a&gt;&lt;script cf-hash='f9e31' type=&quot;text/javascript&quot;&gt;\n/* &lt;![CDATA[ */!function(){try{var t=&quot;currentScript&quot;in document?document.currentScript:function(){for(var t=document.getElementsByTagName(&quot;script&quot;),e=t.length;e--;)if(t[e].getAttribute(&quot;cf-hash&quot;))return t[e]}();if(t&amp;&amp;t.previousSibling){var e,r,n,i,c=t.previousSibling,a=c.getAttribute(&quot;data-cfemail&quot;);if(a){for(e=&quot;&quot;,r=parseInt(a.substr(0,2),16),n=2;a.length-n;n+=2)i=parseInt(a.substr(n,2),16)^r,e+=String.fromCharCode(i);e=document.createTextNode(e),c.parentNode.replaceChild(e,c)}}}catch(u){}}();/* ]]&gt; */&lt;/script&gt;\nCodec ID                       : avc1\nCodec ID/Info                  : Advanced Video Coding\nDuration                       : 44mn 13s\nBit rate                       : 2 624 Kbps\nMaximum bit rate               : 7 863 Kbps\nWidth                          : 1 280 pixels\nHeight                         : 720 pixels\nDisplay aspect ratio           : 16:9\nStream size                    : 830 MiB (93%)\n\n\nAudio\n\nFormat                         :AAC\nFormat/Info                    : Advanced Audio Codec\nDuration                       : 44mn 13s\nBit rate mode                  : Variable\nBit rate                       : 192 Kbps\nMaximum bit rate               : 203 Kbps\nChannel(s)                     : 2 channels\nSampling rate                  : 44.1 KHz\nCompression mode               : Lossy\nStream size                    : 60.7 MiB (7%)\n\n\nSetlist:\n\n01.Hella Good\n02.Looking Hot\n03.Underneath It All\n04.Hey Baby\n05.It's My Life\n06.Settle Down\n07.Don't Speak\n08.Just A Girl\n09.Push and Shove\n10.Spiderwebs","torrent":{"xt":"urn:btih:2e878024f183921cd51cb24f93618604596d00e2","amp;dn":"No+Doubt+-+MTV+World+Stage+%5BHD+720p%5D","amp;tr":["udp%3A%2F%2Ftracker.openbittorrent.com%3A80","udp%3A%2F%2Fopen.demonii.com%3A1337","udp%3A%2F%2Ftracker.coppersurfer.tk%3A6969","udp%3A%2F%2Fexodus.desync.com%3A6969"],"infoHash":"2e878024f183921cd51cb24f93618604596d00e2","infoHashBuffer":{"type":"Buffer","data":[46,135,128,36,241,131,146,28,213,28,178,79,147,97,134,4,89,109,0,226]},"announce":[],"urlList":[]}}